<svg width="27" height="27" viewBox="0 0 27 27" fill="none" xmlns="http://www.w3.org/2000/svg">
<path d="M19.8641 18.7391L15.0908 23.5125C14.6689 23.934 14.0969 24.1707 13.5006 24.1707C12.9042 24.1707 12.3323 23.934 11.9104 23.5125L7.13588 18.7391C5.87725 17.4804 5.02013 15.8768 4.6729 14.131C4.32567 12.3852 4.50393 10.5756 5.18513 8.93108C5.86633 7.28657 7.01989 5.88099 8.49992 4.89208C9.97995 3.90316 11.72 3.37534 13.5 3.37534C15.28 3.37534 17.0201 3.90316 18.5001 4.89208C19.9801 5.88099 21.1337 7.28657 21.8149 8.93108C22.4961 10.5756 22.6743 12.3852 22.3271 14.131C21.9799 15.8768 21.1228 17.4804 19.8641 18.7391Z" fill="#F68018" stroke="#F68018" stroke-width="1.7" stroke-linecap="round" stroke-linejoin="round"/>
<path d="M10.125 12.375C10.125 13.2701 10.4806 14.1286 11.1135 14.7615C11.7464 15.3944 12.6049 15.75 13.5 15.75C14.3951 15.75 15.2536 15.3944 15.8865 14.7615C16.5194 14.1286 16.875 13.2701 16.875 12.375C16.875 11.4799 16.5194 10.6215 15.8865 9.98853C15.2536 9.35559 14.3951 9.00002 13.5 9.00002C12.6049 9.00002 11.7464 9.35559 11.1135 9.98853C10.4806 10.6215 10.125 11.4799 10.125 12.375Z" fill="white"/>
</svg>
