<svg width="18" height="21" viewBox="0 0 18 21" fill="none" xmlns="http://www.w3.org/2000/svg">
<path d="M10.0369 1.19995C10.0369 0.537209 9.49966 -4.88758e-05 8.83691 -4.88758e-05C8.17417 -4.88758e-05 7.63691 0.537209 7.63691 1.19995H8.83691H10.0369ZM7.98839 20.0485C8.45702 20.5171 9.21681 20.5171 9.68544 20.0485L17.3222 12.4117C17.7908 11.9431 17.7908 11.1833 17.3222 10.7147C16.8536 10.246 16.0938 10.246 15.6251 10.7147L8.83691 17.5029L2.04869 10.7147C1.58006 10.246 0.820262 10.246 0.351632 10.7147C-0.116997 11.1833 -0.116997 11.9431 0.351632 12.4117L7.98839 20.0485ZM8.83691 1.19995H7.63691L7.63691 19.2H8.83691H10.0369L10.0369 1.19995H8.83691Z" fill="#FFF5EC"/>
</svg>
