<svg width="21" height="21" viewBox="0 0 21 21" fill="none" xmlns="http://www.w3.org/2000/svg">
<g clip-path="url(#clip0_700_2303)">
<path d="M17.8846 9.26549L16.8485 5.31963C16.6363 4.19358 15.5262 3.38037 14.192 3.38037H6.80805C5.47381 3.38037 4.36373 4.19345 4.15153 5.31963L3.1125 9.26695C2.45654 9.58288 2 10.2529 2 11.0262V13.5144C2 14.5886 2.87899 15.4676 3.95321 15.4676H4.51099V16.6964C4.51099 17.2065 4.92446 17.6199 5.43443 17.6199H6.20777C6.71777 17.6199 7.13118 17.2065 7.13118 16.6964V15.4676H13.8688V16.6964C13.8688 17.2065 14.2822 17.6199 14.7923 17.6199H15.5656C16.0756 17.6199 16.489 17.2065 16.489 16.6964V15.4676H17.0468C18.1211 15.4676 19 14.5885 19 13.5144V11.0262C19 10.2519 18.542 9.58079 17.8846 9.26549ZM5.41278 13.4114C4.79451 13.4114 4.29334 12.9102 4.29334 12.2919C4.29334 11.6736 4.79451 11.1725 5.41278 11.1725C6.03106 11.1725 6.53223 11.6736 6.53223 12.2919C6.53223 12.9102 6.03106 13.4114 5.41278 13.4114ZM12.0076 13.4114H8.99235V11.8518H12.0076V13.4114ZM4.77628 9.07305L5.66765 5.68673L5.68239 5.61826C5.74568 5.24433 6.25066 4.94005 6.80805 4.94005H14.192C14.7493 4.94005 15.2543 5.24433 15.3175 5.61826L16.2247 9.07308L4.77628 9.07305ZM15.5872 13.4114C14.9689 13.4114 14.4678 12.9102 14.4678 12.2919C14.4678 11.6736 14.9689 11.1725 15.5872 11.1725C16.2055 11.1725 16.7067 11.6736 16.7067 12.2919C16.7067 12.9102 16.2055 13.4114 15.5872 13.4114Z" fill="#F68018"/>
</g>
<defs>
<clipPath id="clip0_700_2303">
<rect width="17" height="17" fill="white" transform="translate(2 2)"/>
</clipPath>
</defs>
</svg>
