<svg width="22" height="22" viewBox="0 0 22 22" fill="none" xmlns="http://www.w3.org/2000/svg">
<path d="M11.6875 5.32812C11.6875 4.03975 12.5647 2.75 13.9219 2.75C15.279 2.75 16.1562 4.03975 16.1562 5.32812C16.1562 6.6165 15.279 7.90625 13.9219 7.90625C12.5647 7.90625 11.6875 6.6165 11.6875 5.32812ZM3.26562 5.84375C1.9085 5.84375 1.03125 7.1335 1.03125 8.42188C1.03125 9.71025 1.9085 11 3.26562 11C4.62275 11 5.5 9.71025 5.5 8.42188C5.5 7.1335 4.62275 5.84375 3.26562 5.84375ZM18.7344 5.84375C17.3773 5.84375 16.5 7.1335 16.5 8.42188C16.5 9.71025 17.3773 11 18.7344 11C20.0915 11 20.9688 9.71025 20.9688 8.42188C20.9688 7.1335 20.0915 5.84375 18.7344 5.84375ZM8.07812 2.75C6.721 2.75 5.84375 4.03975 5.84375 5.32812C5.84375 6.6165 6.721 7.90625 8.07812 7.90625C9.43525 7.90625 10.3125 6.6165 10.3125 5.32812C10.3125 4.03975 9.43525 2.75 8.07812 2.75ZM11 9.625C9.17664 9.625 7.42795 10.3493 6.13864 11.6386C4.84933 12.928 4.125 14.6766 4.125 16.5C4.125 18.2847 5.7915 19.25 7.26687 19.25H14.7331C16.2085 19.25 17.875 18.2847 17.875 16.5C17.875 14.6766 17.1507 12.928 15.8614 11.6386C14.572 10.3493 12.8234 9.625 11 9.625Z" fill="#FFF5EC"/>
</svg>
