<svg width="27" height="27" viewBox="0 0 27 27" fill="none" xmlns="http://www.w3.org/2000/svg">
<path d="M20.8438 21.2148C20.7721 21.9371 20.5641 22.5521 20.2285 23.0713L20.0498 23.3232C19.566 23.9465 18.9444 24.25 18.1406 24.25C17.5806 24.25 17.1453 24.057 16.7949 23.6699C16.4391 23.2766 16.25 22.7777 16.25 22.1357C16.25 21.74 16.3398 21.3395 16.5293 20.9316C16.6782 20.6113 16.8284 20.3112 16.9785 20.0303L20.8438 21.2148ZM19.6875 8.375C20.6286 8.375 21.4248 8.80593 22.0947 9.76367C22.7702 10.7295 23.125 11.9639 23.125 13.5C23.125 14.7037 22.9561 15.7769 22.627 16.7256C22.3303 17.5806 21.9517 18.4017 21.4912 19.1895L17.2588 17.9199C17.0351 17.3578 16.8137 16.7009 16.5996 15.9463C16.3656 15.1222 16.25 14.3071 16.25 13.5C16.25 12.0594 16.5979 10.8403 17.2754 9.82129H17.2764C17.9394 8.82142 18.7372 8.375 19.6875 8.375ZM10.0566 14.4668C10.2043 14.7386 10.3491 15.0309 10.4893 15.3438C10.666 15.7384 10.75 16.1262 10.75 16.5098C10.7499 17.1534 10.5607 17.6528 10.2051 18.0459C9.85491 18.4328 9.42001 18.6255 8.86035 18.625H8.85938C8.02923 18.625 7.39393 18.3085 6.90723 17.6602C6.46517 17.0687 6.20106 16.3233 6.13867 15.4004L10.0566 14.4668ZM7.3125 2.75C8.26205 2.75 9.06098 3.19602 9.72559 4.19629C10.4023 5.2153 10.75 6.43438 10.75 7.875C10.75 8.59339 10.6588 9.32099 10.4746 10.0586L10.3896 10.375C10.1704 11.1438 9.94133 11.8053 9.70801 12.3643L5.3916 13.4111C4.95812 12.6608 4.6058 11.8655 4.33398 11.0254C4.03059 10.0876 3.87575 9.03894 3.875 7.875C3.875 6.33886 4.22977 5.10447 4.90527 4.13867C5.57516 3.18093 6.37144 2.75 7.3125 2.75Z" fill="#F68018" stroke="#F68018"/>
</svg>
