<svg width="21" height="21" viewBox="0 0 21 21" fill="none" xmlns="http://www.w3.org/2000/svg">
<path d="M4.4926 3.26175C1.6446 4.17258 1.4675 9.54909 2.80638 12.633L7.35481 12.2929C7.35481 12.2929 7.96804 9.60009 7.94676 6.96297C7.93517 5.52428 7.11605 2.42281 4.4926 3.26175Z" fill="#F68018"/>
<path d="M2.97149 13.8333C2.97149 13.8333 2.81862 18.199 5.86063 17.8615C8.55606 17.5624 7.51431 13.3557 7.51431 13.3557L2.97149 13.8333Z" fill="#F68018"/>
<path d="M16.5074 3.26151C13.884 2.42254 13.0649 5.52404 13.0533 6.96273C13.032 9.59989 13.6452 12.2926 13.6452 12.2926L18.1936 12.6328C19.5326 9.54886 19.3555 4.17234 16.5074 3.26151Z" fill="#F68018"/>
<path d="M13.4859 13.3557C13.4859 13.3557 12.4441 17.5624 15.1395 17.8615C18.1815 18.199 18.0287 13.8333 18.0287 13.8333L13.4859 13.3557Z" fill="#F68018"/>
</svg>
