<svg width="24" height="24" viewBox="0 0 24 24" fill="none" xmlns="http://www.w3.org/2000/svg">
<g clip-path="url(#clip0_700_2248)">
<path d="M16.1806 2H7.81938C4.69778 2 2.16724 4.53055 2.16724 7.65215V16.3479C2.16724 19.4695 4.69778 22 7.81938 22H16.1806C19.3022 22 21.8327 19.4695 21.8327 16.3479V7.65215C21.8328 4.53055 19.3022 2 16.1806 2ZM4.17392 7.65215C4.17392 5.64195 5.80919 4.00668 7.81938 4.00668H16.1806C18.1908 4.00668 19.8261 5.64195 19.8261 7.65215V16.3479C19.8261 18.358 18.1908 19.9933 16.1806 19.9933H7.81938C5.80919 19.9933 4.17392 18.358 4.17392 16.3479V7.65215Z" fill="#AA2B1D"/>
<path d="M12 17.1504C14.84 17.1504 17.1505 14.8399 17.1505 12C17.1505 9.15999 14.84 6.84937 12 6.84937C9.16012 6.84937 6.84961 9.15999 6.84961 12C6.84961 14.8399 9.16008 17.1504 12 17.1504ZM12 8.45472C13.9548 8.45472 15.5451 10.0451 15.5451 12C15.5451 13.9548 13.9548 15.5452 12 15.5452C10.0453 15.5452 8.45496 13.9548 8.45496 12C8.45496 10.0451 10.0452 8.45472 12 8.45472Z" fill="#AA2B1D"/>
<path d="M17.3011 7.85306C17.9383 7.85306 18.455 7.33642 18.455 6.69911C18.455 6.0618 17.9383 5.54517 17.3011 5.54517C16.6638 5.54517 16.1472 6.0618 16.1472 6.69911C16.1472 7.33642 16.6638 7.85306 17.3011 7.85306Z" fill="#AA2B1D"/>
</g>
<defs>
<clipPath id="clip0_700_2248">
<rect width="20" height="20" fill="white" transform="translate(2 2)"/>
</clipPath>
</defs>
</svg>
