<svg width="24" height="24" viewBox="0 0 24 24" fill="none" xmlns="http://www.w3.org/2000/svg">
<path fill-rule="evenodd" clip-rule="evenodd" d="M3 8.25C3 7.91848 3.13546 7.60054 3.37658 7.36612C3.6177 7.1317 3.94472 7 4.28571 7H19.7143C20.0553 7 20.3823 7.1317 20.6234 7.36612C20.8645 7.60054 21 7.91848 21 8.25C21 8.58152 20.8645 8.89946 20.6234 9.13388C20.3823 9.3683 20.0553 9.5 19.7143 9.5H4.28571C3.94472 9.5 3.6177 9.3683 3.37658 9.13388C3.13546 8.89946 3 8.58152 3 8.25ZM3 15.75C3 15.4185 3.13546 15.1005 3.37658 14.8661C3.6177 14.6317 3.94472 14.5 4.28571 14.5H19.7143C20.0553 14.5 20.3823 14.6317 20.6234 14.8661C20.8645 15.1005 21 15.4185 21 15.75C21 16.0815 20.8645 16.3995 20.6234 16.6339C20.3823 16.8683 20.0553 17 19.7143 17H4.28571C3.94472 17 3.6177 16.8683 3.37658 16.6339C3.13546 16.3995 3 16.0815 3 15.75Z" fill="#AA2B1D"/>
</svg>
