<svg width="36" height="36" viewBox="0 0 36 36" fill="none" xmlns="http://www.w3.org/2000/svg">
<path d="M27 19.4969H19.5V26.9969C19.5 27.3948 19.342 27.7763 19.0607 28.0576C18.7794 28.3389 18.3978 28.4969 18 28.4969C17.6022 28.4969 17.2206 28.3389 16.9393 28.0576C16.658 27.7763 16.5 27.3948 16.5 26.9969V19.4969H9C8.60218 19.4969 8.22064 19.3389 7.93934 19.0576C7.65804 18.7763 7.5 18.3948 7.5 17.9969C7.5 17.5991 7.65804 17.2176 7.93934 16.9363C8.22064 16.655 8.60218 16.4969 9 16.4969H16.5V8.99695C16.5 8.59912 16.658 8.21759 16.9393 7.93629C17.2206 7.65498 17.6022 7.49695 18 7.49695C18.3978 7.49695 18.7794 7.65498 19.0607 7.93629C19.342 8.21759 19.5 8.59912 19.5 8.99695V16.4969H27C27.3978 16.4969 27.7794 16.655 28.0607 16.9363C28.342 17.2176 28.5 17.5991 28.5 17.9969C28.5 18.3948 28.342 18.7763 28.0607 19.0576C27.7794 19.3389 27.3978 19.4969 27 19.4969Z" fill="#F68018"/>
</svg>
