<svg width="32" height="32" viewBox="0 0 32 32" fill="none" xmlns="http://www.w3.org/2000/svg">
<path fill-rule="evenodd" clip-rule="evenodd" d="M27.728 2.21399C27.8974 2.11314 28.085 2.04664 28.2801 2.01829C28.4752 1.98994 28.674 2.0003 28.8651 2.04877C29.0562 2.09724 29.2359 2.18288 29.3939 2.30079C29.5519 2.41871 29.6851 2.56659 29.786 2.73599C29.8869 2.9054 29.9534 3.09301 29.9817 3.28812C30.0101 3.48322 29.9997 3.682 29.9512 3.8731C29.9028 4.06421 29.8171 4.24389 29.6992 4.4019C29.5813 4.5599 29.4334 4.69314 29.264 4.79399C28.9609 5.03041 28.6935 5.30928 28.47 5.62199C28.06 6.19599 27.606 7.11799 27.516 8.50199C28.3047 9.1723 28.8196 10.1091 28.9626 11.1342C29.1057 12.1594 28.867 13.2013 28.292 14.062L28.236 14.148C27.8519 14.7249 27.6044 15.3817 27.5122 16.0686C27.42 16.7554 27.4856 17.4543 27.704 18.112L28.646 20.94C28.9916 21.9744 29.0863 23.0761 28.9223 24.1543C28.7584 25.2325 28.3405 26.2562 27.703 27.1411C27.0656 28.0261 26.227 28.7468 25.2563 29.2438C24.2856 29.7409 23.2106 30.0001 22.12 30H4.664C3.95728 29.9995 3.27969 29.7183 2.78015 29.2184C2.28061 28.7185 2 28.0407 2 27.334C2 24.888 3.644 22.828 5.888 22.198C4.688 20.54 4 18.3 4 16C4 13.176 4.916 10.652 6.698 8.82599C8.486 6.99599 11.018 5.99999 14 5.99999C17.044 5.99999 19.286 7.60399 20.492 9.85999C20.704 9.52133 20.9507 9.21466 21.232 8.93999C20.597 7.70878 20.3462 6.31534 20.512 4.93999C20.6004 4.24718 20.7982 3.57279 21.098 2.94199L21.17 2.80399L21.196 2.75799L21.206 2.74199L21.21 2.73399L21.212 2.73199V2.72799C21.3142 2.55924 21.4486 2.41227 21.6075 2.29547C21.7665 2.17866 21.9469 2.09431 22.1385 2.04723C22.3301 2.00015 22.529 1.99127 22.724 2.02108C22.919 2.05089 23.1062 2.11882 23.275 2.22099C23.4437 2.32316 23.5907 2.45757 23.7075 2.61654C23.8243 2.7755 23.9087 2.95592 23.9558 3.14749C24.0028 3.33906 24.0117 3.53802 23.9819 3.73302C23.9521 3.92802 23.8842 4.11524 23.782 4.28399C23.762 4.32133 23.7327 4.38733 23.694 4.48199C23.622 4.66999 23.534 4.95399 23.488 5.31199C23.3974 6.09063 23.5423 6.87855 23.904 7.57399C24.1347 7.53533 24.3687 7.51266 24.606 7.50599C24.7822 6.19979 25.2707 4.95531 26.03 3.87799C26.3466 3.43189 26.7145 3.02444 27.126 2.66399C27.2938 2.52041 27.4694 2.38621 27.652 2.26199L27.696 2.23199L27.716 2.22199L27.722 2.21799L27.726 2.21599L27.728 2.21399ZM15.5 21.5C17.254 21.5 18.64 20.74 19.62 19.62C20.7327 18.3814 21.5318 16.8937 21.95 15.282L22.802 12C22.9244 11.531 23.2129 11.1225 23.6138 10.8503C24.0148 10.578 24.501 10.4607 24.982 10.52C25.2661 10.5636 25.5251 10.7077 25.7119 10.926C25.8987 11.1444 26.0009 11.4226 26 11.71C26.0001 11.9543 25.9292 12.1933 25.796 12.398L25.74 12.484C25.1026 13.4413 24.6921 14.5314 24.5396 15.6713C24.3871 16.8112 24.4967 17.9708 24.86 19.062L25.8 21.888C25.9954 22.4715 26.0492 23.093 25.957 23.7014C25.8648 24.3097 25.6292 24.8875 25.2697 25.3868C24.9102 25.8862 24.4371 26.2929 23.8895 26.5734C23.3418 26.8539 22.7353 27.0001 22.12 27H5.024C5.184 25.87 6.158 25 7.334 25H8.69C9.09299 25.0016 9.48499 24.8686 9.80388 24.6222C10.1228 24.3758 10.3503 24.03 10.4504 23.6397C10.5505 23.2493 10.5175 22.8367 10.3566 22.4672C10.1956 22.0977 9.91602 21.7925 9.562 21.6C8.262 20.876 7 18.748 7 16C7 13.824 7.696 12.1 8.844 10.924C9.986 9.75399 11.704 8.99999 14 8.99999C16.692 8.99999 18.5 11.112 18.5 14C18.5 15.278 18.176 16.47 17.626 17.292C17.106 18.072 16.418 18.5 15.5 18.5C13.76 18.5 13 17.364 13 16.5C13 15.398 13.76 15 14 15C14.3978 15 14.7794 14.842 15.0607 14.5607C15.342 14.2793 15.5 13.8978 15.5 13.5C15.5 13.1022 15.342 12.7206 15.0607 12.4393C14.7794 12.158 14.3978 12 14 12C11.78 12 10 14.08 10 16.5C10 19.158 12.24 21.5 15.5 21.5Z" fill="#FFF5EC"/>
</svg>
