<svg width="21" height="21" viewBox="0 0 21 21" fill="none" xmlns="http://www.w3.org/2000/svg">
<g clip-path="url(#clip0_700_2292)">
<path d="M5.33332 1.76277C4.09652 2.5649 3.85355 5.07221 4.3205 7.11573C4.68416 8.70712 5.45731 10.8418 6.76105 12.852C7.98751 14.7431 9.6986 16.4387 11.0033 17.4198C12.6788 18.6795 15.0672 19.4802 16.304 18.6781C16.9294 18.2725 17.8585 17.1643 17.9009 16.9655C17.9009 16.9655 17.3561 16.1254 17.2365 15.941L15.4093 13.1238C15.2736 12.9144 14.4221 13.1058 13.9895 13.3508C13.406 13.6814 12.8687 14.5685 12.8687 14.5685C12.4686 14.7996 12.1335 14.5693 11.4333 14.2471C10.5728 13.8511 9.60529 12.621 8.83527 11.5068C8.13196 10.3493 7.40328 8.96418 7.39273 8.017C7.38405 7.24631 7.31043 6.84644 7.68467 6.57538C7.68467 6.57538 8.71377 6.4465 9.25359 6.0486C9.6537 5.75357 10.1757 5.05417 10.0399 4.84478L8.21275 2.02757C8.09319 1.84321 7.54834 1.00312 7.54834 1.00312C7.34946 0.960754 5.95871 1.35718 5.33332 1.76277Z" fill="#F68018"/>
</g>
<defs>
<clipPath id="clip0_700_2292">
<rect width="18" height="18" fill="white" transform="translate(2 1)"/>
</clipPath>
</defs>
</svg>
