<svg width="21" height="21" viewBox="0 0 21 21" fill="none" xmlns="http://www.w3.org/2000/svg">
<g clip-path="url(#clip0_700_2277)">
<path d="M10.5 2C5.81305 2 2 5.81318 2 10.5C2 15.1871 5.81305 19 10.5 19C15.187 19 19 15.1871 19 10.5C19 5.81318 15.187 2 10.5 2ZM10.5 16.9762C6.9291 16.9762 4.02383 14.0712 4.02383 10.5C4.02383 6.9291 6.9291 4.02383 10.5 4.02383C14.0709 4.02383 16.9762 6.9291 16.9762 10.5C16.9762 14.0712 14.0709 16.9762 10.5 16.9762Z" fill="#F68018"/>
<path d="M10.5808 5.84351C10.1555 5.84351 9.8107 6.18825 9.8107 6.61365V10.1002L7.3521 12.5588C7.05125 12.8595 7.05125 13.3471 7.3521 13.648C7.65286 13.9487 8.14048 13.9487 8.4413 13.648L11.3511 10.7383V9.94924V6.61365C11.3511 6.18825 11.0062 5.84351 10.5808 5.84351Z" fill="#F68018"/>
</g>
<defs>
<clipPath id="clip0_700_2277">
<rect width="17" height="17" fill="white" transform="translate(2 2)"/>
</clipPath>
</defs>
</svg>
