<svg width="42" height="42" viewBox="0 0 42 42" fill="none" xmlns="http://www.w3.org/2000/svg">
<circle cx="21" cy="21" r="21" fill="#FFF5EC"/>
<path d="M13.4 32C12.7813 32 12.3547 31.8187 12.12 31.456C11.8853 31.0933 11.8853 30.6027 12.12 29.984L19.352 11.008C19.672 10.0693 20.344 9.6 21.368 9.6H21.624C22.648 9.6 23.32 10.0693 23.64 11.008L30.904 29.984C31.1387 30.6027 31.128 31.0933 30.872 31.456C30.6373 31.8187 30.2107 32 29.592 32H28.984C27.9813 32 27.32 31.52 27 30.56L25.752 27.072H17.144L15.896 30.56C15.576 31.52 14.9147 32 13.912 32H13.4ZM18.36 23.648H24.568L21.496 14.912L18.36 23.648Z" fill="#F68018"/>
</svg>
