<svg width="30" height="15" viewBox="0 0 30 15" fill="none" xmlns="http://www.w3.org/2000/svg">
<path d="M2.32625 14.6057L14.0382 3.07893C14.2937 2.82612 14.6387 2.68432 14.9981 2.68432C15.3576 2.68432 15.7026 2.82612 15.9581 3.07893L27.6725 14.6032C27.9297 14.8559 28.2757 14.9975 28.6362 14.9975C28.9967 14.9975 29.3428 14.8559 29.6 14.6032C29.7266 14.4798 29.8272 14.3323 29.8959 14.1693C29.9646 14.0064 30 13.8314 30 13.6545C30 13.4777 29.9646 13.3027 29.8959 13.1398C29.8272 12.9768 29.7266 12.8293 29.6 12.7059L17.8905 1.18154C17.1192 0.42427 16.0815 -1.64423e-06 15.0006 -1.54974e-06C13.9197 -1.45524e-06 12.882 0.42427 12.1108 1.18154L0.401338 12.7059C0.274339 12.8293 0.173385 12.977 0.104452 13.1402C0.0355185 13.3033 1.77435e-06 13.4787 1.78983e-06 13.6558C1.80532e-06 13.8329 0.0355186 14.0083 0.104452 14.1714C0.173386 14.3346 0.27434 14.4823 0.401339 14.6057C0.658464 14.8584 1.00454 15 1.36504 15C1.72554 15 2.07162 14.8584 2.32875 14.6057" fill="#512900"/>
</svg>
