<svg width="7" height="12" viewBox="0 0 7 12" fill="none" xmlns="http://www.w3.org/2000/svg">
<path d="M0.267679 11.7359C0.0962845 11.5667 7.90312e-09 11.3373 1.07558e-08 11.098C1.36084e-08 10.8588 0.0962845 10.6294 0.267679 10.4602L4.7932 5.99455L0.267679 1.52889C0.101142 1.35874 0.00899058 1.13086 0.0110736 0.894315C0.0131567 0.657773 0.109307 0.431502 0.278816 0.264235C0.448325 0.0969687 0.677629 0.00208951 0.917342 3.43432e-05C1.15705 -0.00202178 1.388 0.0889101 1.56042 0.253245L6.73232 5.35673C6.90372 5.52591 7 5.75533 7 5.99455C7 6.23377 6.90372 6.4632 6.73232 6.63238L1.56042 11.7359C1.38898 11.905 1.15648 12 0.914052 12C0.671626 12 0.439126 11.905 0.267679 11.7359Z" fill="#FFF5EC"/>
</svg>
