<svg width="27" height="27" viewBox="0 0 27 27" fill="none" xmlns="http://www.w3.org/2000/svg">
<path d="M5.3335 18.8333C5.3335 19.4522 5.57933 20.0457 6.01691 20.4832C6.4545 20.9208 7.04799 21.1667 7.66683 21.1667C8.28567 21.1667 8.87916 20.9208 9.31675 20.4832C9.75433 20.0457 10.0002 19.4522 10.0002 18.8333C10.0002 18.2145 9.75433 17.621 9.31675 17.1834C8.87916 16.7458 8.28567 16.5 7.66683 16.5C7.04799 16.5 6.4545 16.7458 6.01691 17.1834C5.57933 17.621 5.3335 18.2145 5.3335 18.8333ZM17.0002 18.8333C17.0002 19.4522 17.246 20.0457 17.6836 20.4832C18.1212 20.9208 18.7147 21.1667 19.3335 21.1667C19.9523 21.1667 20.5458 20.9208 20.9834 20.4832C21.421 20.0457 21.6668 19.4522 21.6668 18.8333C21.6668 18.2145 21.421 17.621 20.9834 17.1834C20.5458 16.7458 19.9523 16.5 19.3335 16.5C18.7147 16.5 18.1212 16.7458 17.6836 17.1834C17.246 17.621 17.0002 18.2145 17.0002 18.8333Z" fill="#F68018" stroke="#F68018" stroke-width="1.7" stroke-linecap="round" stroke-linejoin="round"/>
<path d="M5.33333 18.8333H3V11.8333M3 11.8333L5.33333 6H15.8333L20.5 11.8333M3 11.8333H20.5M20.5 11.8333H21.6667C22.2855 11.8333 22.879 12.0792 23.3166 12.5168C23.7542 12.9543 24 13.5478 24 14.1667V18.8333H21.6667M17 18.8333H10M13.5 11.8333V6" stroke="#F68018" stroke-width="1.7" stroke-linecap="round" stroke-linejoin="round"/>
</svg>
