<svg width="16" height="13" viewBox="0 0 16 13" fill="none" xmlns="http://www.w3.org/2000/svg">
<path d="M14.4 8.02144e-08C14.8037 -0.000127663 15.1925 0.152325 15.4884 0.426798C15.7844 0.70127 15.9657 1.07748 15.996 1.48L16 1.6V11.2C16.0001 11.6037 15.8477 11.9925 15.5732 12.2884C15.2987 12.5844 14.9225 12.7657 14.52 12.796L14.4 12.8H1.6C1.19634 12.8001 0.807547 12.6477 0.511562 12.3732C0.215577 12.0987 0.0342747 11.7225 0.00400017 11.32L8.02144e-08 11.2V1.6C-0.000127663 1.19634 0.152325 0.807547 0.426798 0.511562C0.70127 0.215577 1.07748 0.0342747 1.48 0.00400017L1.6 8.02144e-08H14.4ZM14.4 2.7312L8.848 8.2832C8.623 8.50792 8.318 8.63414 8 8.63414C7.682 8.63414 7.377 8.50792 7.152 8.2832L1.6 2.7312V11.2H14.4V2.7312ZM13.2688 1.6H2.7312L8 6.8688L13.2688 1.6Z" fill="#512900"/>
</svg>
