<svg width="42" height="42" viewBox="0 0 42 42" fill="none" xmlns="http://www.w3.org/2000/svg">
<circle cx="21" cy="21" r="21" fill="#F68018"/>
<path d="M20.648 32.512C18.6213 32.512 16.808 32.032 15.208 31.072C13.6293 30.112 12.392 28.7573 11.496 27.008C10.6 25.2373 10.152 23.168 10.152 20.8C10.152 18.4107 10.6 16.3413 11.496 14.592C12.392 12.8213 13.6293 11.456 15.208 10.496C16.808 9.51466 18.6213 9.024 20.648 9.024C22.6747 9.024 24.4667 9.51466 26.024 10.496C27.6027 11.456 28.84 12.8213 29.736 14.592C30.6533 16.3413 31.112 18.4107 31.112 20.8C31.112 21.952 30.9947 23.04 30.76 24.064C30.5467 25.0667 30.2267 25.9947 29.8 26.848L31.688 28.32C32.6907 29.0667 32.808 29.9413 32.04 30.944C31.2293 31.968 30.3653 32.1173 29.448 31.392L27.56 29.92C26.664 30.752 25.6293 31.392 24.456 31.84C23.304 32.288 22.0347 32.512 20.648 32.512ZM20.648 28.928C21.3947 28.928 22.0987 28.8107 22.76 28.576C23.4213 28.32 24.008 27.9787 24.52 27.552L22.984 26.368C22.0027 25.5573 21.8853 24.672 22.632 23.712C23.4 22.752 24.1893 22.5707 25 23.168L26.632 24.48C26.824 23.9467 26.9733 23.3707 27.08 22.752C27.1867 22.1333 27.24 21.4827 27.24 20.8C27.24 19.1573 26.9627 17.728 26.408 16.512C25.8747 15.2747 25.1173 14.3253 24.136 13.664C23.1547 12.9813 21.992 12.64 20.648 12.64C19.3253 12.64 18.1627 12.9813 17.16 13.664C16.1573 14.3253 15.3787 15.2747 14.824 16.512C14.2907 17.728 14.024 19.1573 14.024 20.8C14.024 22.4213 14.2907 23.8507 14.824 25.088C15.3787 26.304 16.1573 27.2533 17.16 27.936C18.1627 28.5973 19.3253 28.928 20.648 28.928Z" fill="#FFF5EC"/>
</svg>
